<svg id="Layer_2" data-name="Layer 2" xmlns="http://www.w3.org/2000/svg" viewBox="0 0 316.93668 320.99997"><defs><style>.cls-1{fill:#fff;}</style></defs><path class="cls-1" d="M158.46835,0c11.25241,13.81162,19.1,28.89721,27.00165,44.76068l4.32883,8.59475q7.04928,14.01414,14.04822,28.05324,4.89216,9.76068,9.78653,19.5203,10.23719,20.429,20.44113,40.87453Q247.171,168.03145,260.35123,194.217q10.11135,20.1331,20.17129,40.29189,4.83673,9.67023,9.69657,19.32884,6.77655,13.47816,13.48312,26.99066c1.34866,2.66626,2.69733,5.33252,4.08685,8.07959,5.70642,11.54687,9.14762,19.02267,9.14762,32.092H0a391.98254,391.98254,0,0,1,22.41258-53.93881l4.30727-8.63791q7.00422-14.03091,14.05592-28.03787,4.88915-9.771,9.77475-19.54386,10.21635-20.42318,20.46285-40.83113,13.15629-26.20866,26.262-52.44252,10.076-20.15036,20.17183-40.29082,4.84623-9.673,9.68648-19.349,6.74331-13.47348,13.51117-26.93457l4.06192-8.12944C153.93988,4.52846,153.93988,4.52846,158.46835,0Zm-4.06329,65.01266-4.26865,8.97474c-24.94435,52.35882-49.98852,104.542-77.48922,155.6203Q62.39344,248.66556,52.5688,267.92328c-1.55562,3.05365-3.11127,6.1073-4.714,9.25348-3.69931,7.17682-3.69931,7.17682-3.15857,15.38019H272.24051c-2.68176-8.04532-5.36353-16.09064-8.12659-24.37973H85.32912l73.13923-146.27849,44.6962,89.39241c-29.71283.5079-29.71283.5079-39.01889.47815-8.68072.14961-8.68072.14961-21.93045,3.58514l-12.18985,24.37975H247.86075c-27.52457-58.7191-56.13471-116.816-85.3291-174.72153Z"/></svg>